<svg xmlns="http://www.w3.org/2000/svg" version="1.1" xmlns:xlink="http://www.w3.org/1999/xlink" xmlns:svgjs="http://svgjs.dev/svgjs" width="2000" height="1247" viewBox="0 0 2000 1247"><g transform="matrix(1,0,0,1,-1.2121212121212466,0.5048582995951847)"><svg viewBox="0 0 396 247" data-background-color="#000000" preserveAspectRatio="xMidYMid meet" height="1247" width="2000" xmlns="http://www.w3.org/2000/svg" xmlns:xlink="http://www.w3.org/1999/xlink"><g id="tight-bounds" transform="matrix(1,0,0,1,0.2400000000000091,-0.09999999999999432)"><svg viewBox="0 0 395.52 247.2" height="247.2" width="395.52"><g><svg></svg></g><g><svg viewBox="0 0 395.52 247.2" height="247.2" width="395.52"><g transform="matrix(1,0,0,1,75.54432,90.79104905249126)"><svg viewBox="0 0 244.43135999999998 65.61790189501747" height="65.61790189501747" width="244.43135999999998"><g><svg viewBox="0 0 244.43135999999998 65.61790189501747" height="65.61790189501747" width="244.43135999999998"><g><svg viewBox="0 0 244.43135999999998 65.61790189501747" height="65.61790189501747" width="244.43135999999998"><g><svg viewBox="0 0 244.43135999999998 65.61790189501747" height="65.61790189501747" width="244.43135999999998"><g id="textblocktransform"><svg viewBox="0 0 244.43135999999998 65.61790189501747" height="65.61790189501747" width="244.43135999999998" id="textblock"><g><svg viewBox="0 0 244.43135999999998 42.59760530087301" height="42.59760530087301" width="244.43135999999998"><g transform="matrix(1,0,0,1,0,0)"><svg width="244.43135999999998" viewBox="3.15 -37.15 259.33428571412503 45.199999999999996" height="42.59760530087301" data-palette-color="#48937e"><path d="M3.65 0Q3.4 0 3.28-0.15 3.15-0.3 3.15-0.7L3.15-0.7 3.15-10.45 3.15-14.7 3.15-29.2Q3.15-29.6 3.25-29.75 3.35-29.9 3.75-29.9L3.75-29.9 4.7-29.95 5.8-29.9Q6.2-29.9 6.2-29L6.2-29 6.15-27.6Q8.65-28.75 10.53-29.33 12.4-29.9 15-29.9L15-29.9Q17.35-29.9 19.13-29.18 20.9-28.45 21.93-27.63 22.95-26.8 23.05-26.55L23.05-26.55Q24.1-27.4 25.03-28.03 25.95-28.65 27.75-29.28 29.55-29.9 31.85-29.9L31.85-29.9Q34.15-29.9 35.77-29.18 37.4-28.45 38.65-26.65L38.65-26.65Q39.55-25.55 40.03-23.15 40.5-20.75 40.5-19.2L40.5-19.2Q40.5-18.35 40.55-17.75L40.55-17.75 40.6-14.1Q40.6-11.75 40.5-10.55L40.5-10.55Q40.4-7.75 40.4-3.05L40.4-3.05 40.4-1.3 40.45-0.55Q40.45-0.05 40.15 0L40.15 0 38.6-0.05Q37.9-0.05 37.65 0L37.65 0 37.5 0Q37.25 0 37.18-0.23 37.1-0.45 37.1-1.15L37.1-1.15Q37.1-2.25 37.05-3.3L37.05-3.3Q36.95-7 36.95-10.15L36.95-10.15Q36.95-12.05 37.05-13.65L37.05-13.65 37.1-15.55Q37.1-17.85 36.88-20.18 36.65-22.5 36.2-23.6L36.2-23.6Q35.35-25.4 34.35-26.05 33.35-26.7 31.3-26.7L31.3-26.7Q27.95-26.7 26.2-25.45 24.45-24.2 24.2-22.4L24.2-22.4 24.2-12.1Q24.3-10.7 24.3-7.35L24.3-7.35Q24.3-6 24.25-5.75L24.25-5.75 24.2-4.85Q24.2-2.85 24.35-0.9L24.35-0.9Q24.35-0.3 24-0.13 23.65 0.05 23.1 0L23.1 0 22.15 0 21.95 0 21.35 0 20.4 0Q19.85 0 19.7-0.43 19.55-0.85 19.53-1.28 19.5-1.7 19.5-1.85L19.5-1.85Q19.45-2.2 19.55-3.3L19.55-3.3Q19.65-4.4 19.65-5.3L19.65-5.3Q19.65-6.6 19.8-9.3L19.8-9.3 19.9-14.1 19.95-18.15Q19.95-22.25 19.7-23.6L19.7-23.6Q19.3-25.45 18.07-26.08 16.85-26.7 14.25-26.7L14.25-26.7Q12.2-26.7 10.03-25.85 7.85-25 6.5-23.95L6.5-23.95Q6.5-20.05 6.55-17.05L6.55-17.05 6.55-10.15 6.55-8.25 6.5-0.8Q6.5-0.4 6.28-0.2 6.05 0 5.4 0L5.4 0 3.65 0ZM55.65 1.1Q49.05 1.1 46.85-3.98 44.65-9.05 44.65-14.85L44.65-14.85Q44.65-20.45 46.35-23.83 48.05-27.2 50.47-28.55 52.9-29.9 55.35-29.9L55.35-29.9Q59.95-29.9 62.3-27.48 64.65-25.05 65.3-21.73 65.95-18.4 65.95-14.25L65.95-14.25Q65.95-10.9 64.82-7.33 63.7-3.75 61.37-1.33 59.05 1.1 55.65 1.1L55.65 1.1ZM55.3-8.6Q56.95-8.6 57.72-10.15 58.5-11.7 58.5-13.9L58.5-13.9Q58.5-16.75 57.77-17.93 57.05-19.1 55.6-19.1L55.6-19.1Q52.5-19.1 52.5-13.5L52.5-13.5Q52.5-11.4 53.05-10 53.6-8.6 55.3-8.6L55.3-8.6ZM76.9 0.25Q76.2 0.25 76-0.1 75.8-0.45 75.65-1.3L75.65-1.3Q75.15-3.2 74.17-6.7 73.2-10.2 72.45-12.9L72.45-12.9Q72.05-14.3 70.72-19.65 69.4-25 68.9-26.9L68.9-26.9 68.55-28.4Q68.45-28.7 68.45-28.8L68.45-28.8Q68.45-29.15 68.95-29.15L68.95-29.15Q69.2-29.15 69.57-29.08 69.95-29 70.35-29L70.35-29 72.5-29.05 75.3-29.15Q76.05-29.25 76.3-28.95 76.55-28.65 76.75-27.9L76.75-27.9Q77.05-27.15 77.6-23.35L77.6-23.35 77.9-21.45Q78.2-19.3 79.1-15.7L79.1-15.7 80.05-11.6 80.6-14.05Q80.9-15.1 81.35-17.75L81.35-17.75Q81.4-18.4 82.4-22.25L82.4-22.25Q83.6-26.7 83.55-27.7L83.55-27.7Q83.45-28.75 83.75-29 84.05-29.25 84.5-29.23 84.95-29.2 85.1-29.2L85.1-29.2Q89.3-29.2 90.4-29.1L90.4-29.1Q91.2-29 91.2-28.6L91.2-28.6Q91.2-28.45 91.1-27.95L91.1-27.95Q90.75-27.05 90-23.9L90-23.9 89.6-22.05Q88.3-15.9 87.4-13.05L87.4-13.05Q86.8-10.55 85.9-5.2L85.9-5.2Q85.75-4.35 85.45-2.7 85.15-1.05 85.05-0.75L85.05-0.75Q84.9-0.05 84.35-0.05L84.35-0.05 83.6-0.1Q82.7-0.1 80.75 0.05L80.75 0.05Q77.55 0.25 76.9 0.25L76.9 0.25ZM94.99 0.4Q94.59 0.4 94.49 0.33 94.39 0.25 94.39 0L94.39 0Q94.39-0.15 94.42-0.48 94.44-0.8 94.44-1.35L94.44-1.35 94.49-6.8 94.59-15.5Q94.59-16.9 94.79-21.5L94.79-21.5Q94.99-26.65 94.94-27.15L94.94-27.15 94.89-28Q94.89-28.55 95.04-28.83 95.19-29.1 95.59-29.1L95.59-29.1 97.69-29.05Q98.14-29.05 98.14-28.5L98.14-28.5Q98.14-28.25 98.09-28 98.04-27.75 98.04-27.5L98.04-27.5Q97.94-26.45 97.84-22.9L97.84-22.9Q97.84-21.75 97.64-17.05L97.64-17.05Q97.59-15.5 97.54-14.03 97.49-12.55 97.49-11.45L97.49-11.45Q97.49-9.05 97.57-5.38 97.64-1.7 97.74-1L97.74-1Q97.79-0.8 97.79-0.45L97.79-0.45Q97.79-0.1 97.72 0.03 97.64 0.15 97.34 0.2L97.34 0.2Q96.94 0.4 96.07 0.4 95.19 0.4 94.99 0.4L94.99 0.4ZM96.64-30.95Q95.59-30.95 94.72-31.75 93.84-32.55 93.84-33.75L93.84-33.75Q93.84-34.8 94.62-35.63 95.39-36.45 96.44-36.45L96.44-36.45Q97.69-36.45 98.69-35.8 99.69-35.15 99.69-34L99.69-34Q99.69-32.6 98.69-31.78 97.69-30.95 96.64-30.95L96.64-30.95ZM115.34 1.1Q107.84 1.1 105.34-3.98 102.84-9.05 102.84-14.85L102.84-14.85Q102.84-20.45 104.54-23.83 106.24-27.2 108.67-28.55 111.09-29.9 113.54-29.9L113.54-29.9Q118.14-29.9 120.47-27.25 122.79-24.6 123.47-21.08 124.14-17.55 124.14-13.45L124.14-13.45Q124.14-13.1 123.64-13L123.64-13Q121.99-13 116.04-12.45L116.04-12.45Q115.09-12.35 113.74-12.23 112.39-12.1 110.74-12L110.74-12Q111.19-7.15 115.99-7.15L115.99-7.15Q117.59-7.15 118.47-7.45 119.34-7.75 121.29-8.7L121.29-8.7Q121.64-8.7 121.92-8.3 122.19-7.9 122.69-6.65L122.69-6.65Q122.84-6.4 123.07-5.7 123.29-5 123.49-4.65L123.49-4.65Q124.44-2.25 124.39-2.15L124.39-2.15Q124.29-1.95 123.84-1.6L123.84-1.6Q122.79-0.55 120.47 0.28 118.14 1.1 115.34 1.1L115.34 1.1ZM110.74-14.9L116.54-15.4Q116.14-21.1 113.79-21.1L113.79-21.1Q112.39-21.1 111.64-19.48 110.89-17.85 110.74-14.9L110.74-14.9ZM150.19 8.05Q149.94 8.05 149.71 8 149.49 7.95 149.29 7.95L149.29 7.95 142.64 7.9Q142.19 7.9 142.09 7.75 141.99 7.6 141.99 7.3L141.99 7.3Q141.99 7.15 141.96 6.73 141.94 6.3 141.94 5.3L141.94 5.3 142.14-0.5Q142.39-5.35 142.39-7.15L142.39-7.15 142.39-9.85Q142.39-10.95 142.34-11.6L142.34-11.6 142.24-24.6 142.14-26.7 142.04-28.55Q142.04-28.95 142.21-29.05 142.39-29.15 142.56-29.15 142.74-29.15 142.79-29.15L142.79-29.15 143.99-29.1 145.74-29 150.09-29.15Q150.44-29.15 150.49-28.98 150.54-28.8 150.54-28.2L150.54-28.2 150.54-27.85Q152.89-29.6 156.34-29.6L156.34-29.6Q159.99-29.6 161.96-26.63 163.94-23.65 164.56-20.15 165.19-16.65 165.19-14.15L165.19-14.15Q165.19-10.05 164.16-6.68 163.14-3.3 161.09-1.3 159.04 0.7 156.04 0.7L156.04 0.7Q154.49 0.7 153.01 0.4 151.54 0.1 150.69-0.4L150.69-0.4 150.64 4.45 150.59 7.7Q150.59 8.05 150.19 8.05L150.19 8.05ZM153.09-7.8Q156.44-7.8 156.44-14.3L156.44-14.3Q156.44-16.85 156.14-18.28 155.84-19.7 155.11-20.33 154.39-20.95 153.09-20.95L153.09-20.95Q152.24-20.95 151.69-20.58 151.14-20.2 150.59-19.6L150.59-19.6 150.49-17.95 150.59-14.65 150.64-12.1 150.64-8.9Q151.59-7.8 153.09-7.8L153.09-7.8ZM170.58 0.4Q170.18 0.4 170.08 0.33 169.98 0.25 169.98 0L169.98 0Q169.98-0.15 170.01-0.48 170.03-0.8 170.03-1.35L170.03-1.35 170.08-6.8 170.18-15.5Q170.18-16.9 170.38-21.5L170.38-21.5Q170.58-26.65 170.53-27.15L170.53-27.15 170.48-28Q170.48-28.55 170.63-28.83 170.78-29.1 171.18-29.1L171.18-29.1 173.28-29.05Q173.73-29.05 173.73-28.5L173.73-28.5Q173.73-28.25 173.68-28 173.63-27.75 173.63-27.5L173.63-27.5Q173.53-26.45 173.43-22.9L173.43-22.9Q173.43-21.75 173.23-17.05L173.23-17.05Q173.18-15.5 173.13-14.03 173.08-12.55 173.08-11.45L173.08-11.45Q173.08-9.05 173.16-5.38 173.23-1.7 173.33-1L173.33-1Q173.38-0.8 173.38-0.45L173.38-0.45Q173.38-0.1 173.31 0.03 173.23 0.15 172.93 0.2L172.93 0.2Q172.53 0.4 171.66 0.4 170.78 0.4 170.58 0.4L170.58 0.4ZM172.23-30.95Q171.18-30.95 170.31-31.75 169.43-32.55 169.43-33.75L169.43-33.75Q169.43-34.8 170.21-35.63 170.98-36.45 172.03-36.45L172.03-36.45Q173.28-36.45 174.28-35.8 175.28-35.15 175.28-34L175.28-34Q175.28-32.6 174.28-31.78 173.28-30.95 172.23-30.95L172.23-30.95ZM190.48 0.6Q184.93 0.6 181.98-3.68 179.03-7.95 179.03-14.85L179.03-14.85Q179.03-19.2 180.43-22.55 181.83-25.9 184.36-27.75 186.88-29.6 190.18-29.6L190.18-29.6Q193.38-29.6 195.38-28.45 197.38-27.3 198.13-26.25L198.13-26.25Q198.18-26.2 198.41-25.93 198.63-25.65 198.63-25.4L198.63-25.4Q198.63-25.15 198.13-24.7L198.13-24.7Q197.68-24.25 196.93-23.3L196.93-23.3Q196.43-22.5 196.13-22.5L196.13-22.5Q195.98-22.5 195.78-22.73 195.58-22.95 195.48-23.05L195.48-23.05Q194.58-24 193.26-24.85 191.93-25.7 190.63-25.7L190.63-25.7Q187.88-25.7 186.03-24.83 184.18-23.95 183.08-21.38 181.98-18.8 181.98-14L181.98-14Q181.98-6.55 184.46-4.33 186.93-2.1 189.73-2.1L189.73-2.1Q191.03-2.1 192.86-3.23 194.68-4.35 196.08-6.95L196.08-6.95Q196.53-7.5 196.78-7.5L196.78-7.5Q197.03-7.5 197.28-7.3L197.28-7.3 198.03-6.7Q198.48-6.3 199.01-5.65 199.53-5 199.53-4.7L199.53-4.7Q199.53-4.5 199.38-4.25L199.38-4.25Q198.38-2.65 196.28-1.03 194.18 0.6 190.48 0.6L190.48 0.6ZM204.83 0.05Q204.38 0.05 204.33 0L204.33 0Q204.03 0 204.03-0.25L204.03-0.25Q204.03-0.4 204.08-0.58 204.13-0.75 204.18-0.9L204.18-0.9Q204.23-1.25 204.08-2.2L204.08-2.2Q203.93-3.55 203.93-3.65L203.93-3.65 203.88-7.25Q203.88-15.8 204.08-16.8L204.08-16.8Q204.13-17.6 204.13-21L204.13-21 204.08-26Q204.08-30.65 204.03-30.85L204.03-30.85Q203.98-31.2 203.98-32.6L203.98-32.6Q203.93-33.85 203.98-35.13 204.03-36.4 204.13-36.75L204.13-36.75Q204.13-37.15 204.58-37.15L204.58-37.15Q204.78-37.15 205-37.08 205.23-37 205.43-37L205.43-37Q205.93-37 206.9-36.98 207.88-36.95 208.53-37L208.53-37 208.78-37Q209.18-37 209.25-36.83 209.33-36.65 209.33-36.43 209.33-36.2 209.33-36.15L209.33-36.15Q209.38-35.7 209.35-35.1 209.33-34.5 209.38-33.65L209.38-33.65 209.43-31.95 209.43-27.7Q209.43-22.1 209.33-21.3L209.33-21.3 209.28-19.8Q209.28-19.4 209.33-19.07 209.38-18.75 209.38-18.4L209.38-18.4 209.43-16 210.13-16.7 211.33-17.95Q212.33-18.95 213.38-20.2L213.38-20.2Q214.53-21.5 215.18-22.15L215.18-22.15Q215.63-22.85 219.18-26.4L219.18-26.4Q219.28-26.5 220.5-27.78 221.73-29.05 222.33-29.1L222.33-29.1 224.03-29.1Q224.33-29.05 224.33-28.8L224.33-28.8Q224.33-28.6 224.13-28.4L224.13-28.4Q224.03-28.3 223.53-27.7 223.03-27.1 222.53-26.7L222.53-26.7Q221.58-25.75 219.75-23.8 217.93-21.85 217.68-21.4L217.68-21.4 215.08-18.55 212.83-16.2 213.58-15.35 214.33-14.5Q215.73-12.85 216.58-12L216.58-12Q216.98-11.65 219.68-8.5L219.68-8.5Q221.83-5.95 222.18-5.65L222.18-5.65Q222.78-5.2 225.48-2L225.48-2 226.48-0.85Q226.58-0.55 226.58-0.5L226.58-0.5Q226.58-0.2 225.88-0.2L225.88-0.2 220.43-0.05Q219.93-0.05 219.6-0.2 219.28-0.35 218.83-0.8L218.83-0.8Q218.68-0.95 215.93-4.3L215.93-4.3 213.33-7.45Q212.43-8.35 211.08-9.95L211.08-9.95 209.48-11.65Q209.53-11.35 209.53-10L209.53-10Q209.53-8.7 209.48-8.4L209.48-8.4 209.48-5.75 209.48-2.85Q209.48-1.7 209.63-0.8L209.63-0.8Q209.68-0.7 209.68-0.5L209.68-0.5Q209.68-0.25 209.53-0.18 209.38-0.1 209.13-0.1L209.13-0.1 207.43-0.1 206.43-0.05Q205.33 0.05 204.83 0.05L204.83 0.05ZM239.53 1.1Q232.03 1.1 229.53-3.98 227.03-9.05 227.03-14.85L227.03-14.85Q227.03-20.45 228.73-23.83 230.43-27.2 232.85-28.55 235.28-29.9 237.73-29.9L237.73-29.9Q242.33-29.9 244.65-27.25 246.98-24.6 247.65-21.08 248.33-17.55 248.33-13.45L248.33-13.45Q248.33-13.1 247.83-13L247.83-13Q246.18-13 240.23-12.45L240.23-12.45Q239.28-12.35 237.93-12.23 236.58-12.1 234.93-12L234.93-12Q235.38-7.15 240.18-7.15L240.18-7.15Q241.78-7.15 242.65-7.45 243.53-7.75 245.48-8.7L245.48-8.7Q245.83-8.7 246.1-8.3 246.38-7.9 246.88-6.65L246.88-6.65Q247.03-6.4 247.25-5.7 247.48-5 247.68-4.65L247.68-4.65Q248.63-2.25 248.58-2.15L248.58-2.15Q248.48-1.95 248.03-1.6L248.03-1.6Q246.98-0.55 244.65 0.28 242.33 1.1 239.53 1.1L239.53 1.1ZM234.93-14.9L240.73-15.4Q240.33-21.1 237.98-21.1L237.98-21.1Q236.58-21.1 235.83-19.48 235.08-17.85 234.93-14.9L234.93-14.9ZM257.67 0.2Q255.67 0.2 254.67-0.4 253.67-1 253.37-2.08 253.07-3.15 253.07-5L253.07-5 253.12-8.1 253.37-14 253.52-18.4 253.52-25.7Q251.12-25.7 250.77-26.5L250.77-26.5Q250.62-26.9 250.62-27.35L250.62-27.35Q250.62-27.85 250.7-28.3 250.77-28.75 250.77-29.15L250.77-29.15Q251.67-29.1 253.52-29.1L253.52-29.1 253.57-29.3 253.62-31.2 253.62-33.35Q253.57-34.55 253.8-34.98 254.02-35.4 254.47-35.4L254.47-35.4Q254.72-35.4 254.87-35.35L254.87-35.35 254.97-35.35Q255.07-35.35 255.32-35.38 255.57-35.4 255.77-35.3L255.77-35.3Q256.77-35.15 256.77-34.45L256.77-34.45Q256.77-34.3 256.67-33.3L256.67-33.3Q256.42-31.55 256.32-29.1L256.32-29.1 261.12-29.1Q261.52-29.1 261.77-28.43 262.02-27.75 262.02-27L262.02-27Q262.02-26 261.57-25.85L261.57-25.85Q260.62-25.55 259.27-25.55L259.27-25.55Q258.07-25.55 256.27-25.75L256.27-25.75 256.27-13.9 256.22-11.9Q256.07-9.95 256.07-7.85L256.07-7.85 256.07-6.85Q256.07-5.25 256.77-4.48 257.47-3.7 258.62-3.7L258.62-3.7Q259.72-3.7 260.52-3.78 261.32-3.85 261.67-3.85L261.67-3.85Q262.22-3.85 262.22-1.9L262.22-1.9 262.42-1.1Q262.57-0.75 262.37-0.7L262.37-0.7Q260.77-0.1 260 0.05 259.22 0.2 257.67 0.2L257.67 0.2Z" opacity="1" transform="matrix(1,0,0,1,0,0)" fill="#000000" class="wordmark-text-0" data-fill-palette-color="primary" id="text-0"></path></svg></g></svg></g><g transform="matrix(1,0,0,1,0,52.653877569881914)"><svg viewBox="0 0 244.43135999999998 12.964024325135549" height="12.964024325135549" width="244.43135999999998"><g transform="matrix(1,0,0,1,0,0)"><svg width="244.43135999999998" viewBox="3.2466796875 -36.25 688.4367449695079 36.505" height="12.964024325135549" data-palette-color="#48937e"><path d="M5.65 0L5.65 0Q4.6-0.05 3.9-0.83 3.2-1.6 3.25-2.6L3.25-2.6Q3.35-4.85 3.4-6.2L3.4-6.2Q3.45-7.95 3.5-9.98 3.55-12 3.58-13.4 3.6-14.8 3.58-16.78 3.55-18.75 3.55-19.83 3.55-20.9 3.53-23.63 3.5-26.35 3.48-27.08 3.45-27.8 3.4-30.28 3.35-32.75 3.35-33.25L3.35-33.25Q3.35-34.3 4.05-35.05 4.75-35.8 5.8-35.8 6.85-35.8 7.6-35.1 8.35-34.4 8.35-33.35L8.35-33.35Q8.5-26.65 8.5-24.95L8.5-24.95Q9.25-25.45 10.05-25.75L10.05-25.75Q13.45-27 16.2-26.43 18.95-25.85 21.15-23.8L21.15-23.8Q23.05-22 24.28-19.4 25.5-16.8 25.85-14.7L25.85-14.7Q26.7-8.35 23.65-4.05L23.65-4.05Q21.9-1.55 19.05-0.5L19.05-0.5Q16.25 0.6 12.6 0L12.6 0Q10.15-0.4 8.1-1.6L8.1-1.6Q7.8-0.85 7.13-0.4 6.45 0.05 5.65 0L5.65 0ZM13.4-4.9L13.4-4.9Q17.65-4.25 19.6-6.95L19.6-6.95Q21.5-9.65 20.9-14.05L20.9-14.05Q20.3-17.75 17.75-20.15L17.75-20.15Q15.25-22.45 11.85-21.15L11.85-21.15Q11.5-21 11.23-20.83 10.95-20.65 10.65-20.3L10.65-20.3 10.05-19.8Q9.85-19.55 9.35-18.98 8.85-18.4 8.55-18.1L8.55-18.1Q8.6-12.9 8.45-7.95L8.45-7.95 8.5-7.9Q10.2-5.45 13.4-4.9L13.4-4.9ZM43.75 0.25L43.75 0.25Q40.05 0 37.3-1.25 34.55-2.5 33.1-4.4 31.65-6.3 31-7.9 30.35-9.5 30.2-11.08 30.05-12.65 30.35-15.15L30.35-15.15Q30.7-17.25 31.82-19.3 32.95-21.35 34.82-22.98 36.7-24.6 39.35-25.48 42-26.35 45-26L45-26Q47.9-25.65 49.95-24.43 52-23.2 53.45-21.3L53.45-21.3Q54.7-19.7 54.97-18.9 55.25-18.1 55.47-17.4 55.7-16.7 55.85-16.2 56-15.7 56.12-15.18 56.25-14.65 56.3-13.95L56.3-13.95Q56.35-13 55.95-12.2 55.55-11.4 54.75-10.95L54.75-10.95Q54.1-10.7 53.35-10.7L53.35-10.7 44.8-10.55Q35.8-10.5 35.8-10.35L35.8-10.35 35.65-10.35Q36.3-7.8 38.37-6.35 40.45-4.9 44.05-4.65L44.05-4.65Q46-4.55 47.3-4.85L47.3-4.85Q48.75-5.25 49.4-5.58 50.05-5.9 51-6.45L51-6.45Q51.95-6.8 52.9-6.35 53.85-5.9 54.2-4.95 54.55-4 54.12-3.1 53.7-2.2 52.8-1.7L52.8-1.7Q52-1.25 51.15-0.93 50.3-0.6 48.65-0.15 47 0.3 43.75 0.25L43.75 0.25ZM35.75-15.25L35.75-15.25Q38.65-15.4 50.8-15.55L50.8-15.55Q50.35-17.05 49.35-18.4L49.35-18.4Q47.35-20.7 44.4-21.05L44.4-21.05Q41.3-21.45 38.95-19.73 36.6-18 35.75-15.25L35.75-15.25ZM72.8 0.1L72.8 0.1Q69.95 0.15 67.22-0.9 64.5-1.95 62.75-3.95L62.75-3.95Q60.95-6.05 60.37-8.97 59.8-11.9 60.32-14.55 60.84-17.2 62.09-19.65L62.09-19.65Q63.09-21.5 64.5-22.98 65.89-24.45 67.77-25.48 69.65-26.5 71.77-26.58 73.9-26.65 76.34-25.65L76.34-25.65Q77.65-25.05 79-23.75L79-23.75 80.59-22.15Q81.4-21.5 81.5-20.45 81.59-19.4 80.92-18.63 80.25-17.85 79.2-17.75 78.15-17.65 77.4-18.35L77.4-18.35Q76.95-18.7 76.34-19.3L76.34-19.3 75.5-20.15Q74.8-20.85 74.34-21.05L74.34-21.05Q72.09-22.05 70.05-21.03 68-20 66.55-17.3L66.55-17.3Q65.05-14.5 65.07-11.7 65.09-8.9 66.55-7.25L66.55-7.25Q67.45-6.2 69.15-5.55 70.84-4.9 72.75-4.9L72.75-4.9Q76.59-5 77.7-7.65L77.7-7.65 77.65-7.9 77.65-9.35Q77.7-10.4 78.47-11.08 79.25-11.75 80.3-11.7 81.34-11.65 82.02-10.88 82.7-10.1 82.65-9.05L82.65-9.05 82.65-7.95Q82.7-6.7 82.3-5.75L82.3-5.75Q81.15-2.85 78.52-1.4 75.9 0.05 72.8 0.1L72.8 0.1ZM101.54-0.8L101.54-0.8Q99.74-0.1 97.47 0 95.19 0.1 93.24-0.53 91.29-1.15 89.79-2.45L89.79-2.45Q87.19-4.6 86.44-7.8 85.69-11 86.39-13.55 87.09-16.1 88.52-18.53 89.94-20.95 91.62-22.63 93.29-24.3 95.49-25.45 97.69-26.6 100.09-26.58 102.49-26.55 105.14-25.25L105.14-25.25Q105.54-25.05 106.02-24.65 106.49-24.25 106.84-23.95L106.84-23.95 107.49-23.3Q107.79-23 107.79-22.95L107.79-22.95Q108.59-22.25 108.64-21.15L108.64-21.15Q109.29-18.15 109.49-14.85 109.69-11.55 109.62-8.65 109.54-5.75 109.69-2.5L109.69-2.5Q109.74-1.5 109.04-0.75 108.34 0 107.29 0.05 106.24 0.1 105.49-0.6 104.74-1.3 104.69-2.3L104.69-2.3 104.69-3.05Q103.19-1.5 101.54-0.8L101.54-0.8ZM99.29-5.3L99.29-5.3Q100.04-5.5 100.49-5.7 100.94-5.9 101.62-6.3 102.29-6.7 103.04-7.3 103.79-7.9 104.39-8.8L104.39-8.8Q104.49-8.9 104.64-9L104.64-9Q104.64-15.75 103.79-19.85L103.79-19.85Q103.64-20.05 103.47-20.23 103.29-20.4 103.22-20.5 103.14-20.6 103.02-20.68 102.89-20.75 102.74-20.85L102.74-20.85Q100.34-22.15 97.69-20.93 95.04-19.7 93.04-16.35L93.04-16.35Q91.04-12.95 91.07-10.43 91.09-7.9 92.99-6.25L92.99-6.25Q94.14-5.3 95.84-5.05 97.54-4.8 99.29-5.3L99.29-5.3ZM134.39 0L134.39 0Q133.49-0.05 132.81-0.7 132.14-1.35 132.04-2.9L132.04-2.9Q129.74-0.9 127.29-0.3L127.29-0.3Q123.79 0.6 120.89-1.45L120.89-1.45Q118.09-3.45 116.49-8.05L116.49-8.05Q115.94-9.65 115.64-11.35L115.64-11.35Q115.34-13.1 115.37-15.08 115.39-17.05 115.44-18.28 115.49-19.5 115.69-21.63 115.89-23.75 115.94-24.3L115.94-24.3Q116.04-25.3 116.82-25.98 117.59-26.65 118.62-26.58 119.64-26.5 120.32-25.73 120.99-24.95 120.94-23.9L120.94-23.9Q120.89-23.15 120.67-21.05 120.44-18.95 120.42-17.93 120.39-16.9 120.37-15.23 120.34-13.55 120.57-12.23 120.79-10.9 121.19-9.65L121.19-9.65Q122.29-6.6 123.99-5.5L123.99-5.5Q124.69-5.05 126.29-5.05L126.29-5.05Q128.44-5.4 129.77-6.3 131.09-7.2 132.24-10.4L132.24-10.4Q132.34-17.05 132.09-23.9L132.09-23.9Q132.04-24.95 132.77-25.7 133.49-26.45 134.52-26.5 135.54-26.55 136.29-25.83 137.04-25.1 137.09-24.1L137.09-24.1Q137.49-12.3 137.04-2.35L137.04-2.35Q136.99-1.35 136.22-0.65 135.44 0.05 134.39 0L134.39 0ZM149.14 0L149.14 0Q145.44-0.65 143.79-3L143.79-3Q142.99-4.05 142.64-5.8L142.64-5.8 142.44-6.9Q142.34-7.4 142.24-7.7L142.24-7.7Q141.94-8.65 142.44-9.55 142.94-10.45 143.94-10.7 144.94-10.95 145.84-10.5 146.74-10.05 147.04-9.05L147.04-9.05Q147.19-8.5 147.34-7.8L147.34-7.8Q147.39-7.55 147.41-7.33 147.44-7.1 147.59-6.55L147.59-6.55Q147.74-5.9 148.29-5.45L148.29-5.45Q148.89-4.9 150.09-4.75L150.09-4.75Q152.09-4.35 154.39-4.85L154.39-4.85Q156.64-5.35 157.89-6.3L157.89-6.3Q158.79-7.1 158.64-7.95L158.64-7.95Q158.49-9.35 156.89-10.05L156.89-10.05Q155.89-10.5 151.69-11.25L151.69-11.25Q147.34-12.1 145.54-13.45L145.54-13.45Q142.24-15.9 143.39-20.75L143.39-20.75Q144.09-23.55 146.26-24.88 148.44-26.2 151.09-26.35L151.09-26.35Q153.34-26.45 155.66-25.83 157.99-25.2 159.64-24.1L159.64-24.1Q160.19-23.7 160.79-23.15 161.39-22.6 161.96-21.95 162.54-21.3 162.64-21.25L162.64-21.25Q163.39-20.5 163.39-19.53 163.39-18.55 162.66-17.82 161.94-17.1 160.91-17.1 159.89-17.1 159.14-17.8L159.14-17.8Q158.64-18.25 158.14-18.75L158.14-18.75 157.44-19.6Q157.14-19.85 156.74-20.1L156.74-20.1Q155.79-20.7 154.29-21.13 152.79-21.55 151.34-21.5L151.34-21.5Q148.69-21.35 148.29-19.65L148.29-19.65Q147.84-17.85 148.59-17.3L148.59-17.3Q149.49-16.65 152.64-16L152.64-16Q157.29-15.2 158.99-14.45L158.99-14.45Q163.09-12.6 163.64-8.5L163.64-8.5Q164.09-5.15 161.14-2.7L161.14-2.7Q158.89-0.85 155.44-0.15L155.44-0.15Q152.14 0.6 149.14 0L149.14 0ZM180.89 0.25L180.89 0.25Q177.19 0 174.44-1.25 171.69-2.5 170.24-4.4 168.79-6.3 168.14-7.9 167.49-9.5 167.34-11.08 167.19-12.65 167.49-15.15L167.49-15.15Q167.84-17.25 168.96-19.3 170.09-21.35 171.96-22.98 173.84-24.6 176.49-25.48 179.14-26.35 182.14-26L182.14-26Q185.04-25.65 187.09-24.43 189.14-23.2 190.59-21.3L190.59-21.3Q191.84-19.7 192.11-18.9 192.39-18.1 192.61-17.4 192.84-16.7 192.99-16.2 193.14-15.7 193.26-15.18 193.39-14.65 193.44-13.95L193.44-13.95Q193.49-13 193.09-12.2 192.69-11.4 191.89-10.95L191.89-10.95Q191.24-10.7 190.49-10.7L190.49-10.7 181.94-10.55Q172.94-10.5 172.94-10.35L172.94-10.35 172.79-10.35Q173.44-7.8 175.51-6.35 177.59-4.9 181.19-4.65L181.19-4.65Q183.14-4.55 184.44-4.85L184.44-4.85Q185.89-5.25 186.54-5.58 187.19-5.9 188.14-6.45L188.14-6.45Q189.09-6.8 190.04-6.35 190.99-5.9 191.34-4.95 191.69-4 191.26-3.1 190.84-2.2 189.94-1.7L189.94-1.7Q189.14-1.25 188.29-0.93 187.44-0.6 185.79-0.15 184.14 0.3 180.89 0.25L180.89 0.25ZM172.89-15.25L172.89-15.25Q175.79-15.4 187.94-15.55L187.94-15.55Q187.49-17.05 186.49-18.4L186.49-18.4Q184.49-20.7 181.54-21.05L181.54-21.05Q178.44-21.45 176.09-19.73 173.74-18 172.89-15.25L172.89-15.25ZM216.43-2.4L216.43-2.4Q216.38-1.35 215.63-0.65 214.88 0.05 213.83 0 212.78-0.05 212.08-0.8 211.38-1.55 211.43-2.6L211.43-2.6Q211.63-9.25 211.63-12.7 211.63-16.15 211.53-23 211.43-29.85 211.43-33.3L211.43-33.3Q211.43-34.35 212.16-35.08 212.88-35.8 213.93-35.8 214.98-35.8 215.71-35.08 216.43-34.35 216.43-33.3L216.43-33.3Q216.43-29.85 216.53-23.5 216.63-17.15 216.61-11.98 216.58-6.8 216.43-2.4L216.43-2.4ZM222.88-2.4L222.88-2.4Q222.78-6.15 222.9-13.9 223.03-21.65 223.03-24.05L223.03-24.05Q223.03-25.1 223.75-25.83 224.48-26.55 225.53-26.55 226.58-26.55 227.3-25.83 228.03-25.1 228.03-24.05L228.03-24.05Q228.03-21.65 227.9-13.95 227.78-6.25 227.88-2.5L227.88-2.5Q227.88-1.45 227.18-0.7 226.48 0.05 225.43 0.05 224.38 0.05 223.63-0.65 222.88-1.35 222.88-2.4L222.88-2.4ZM227.53-35.2L227.53-35.2Q228.38-34.35 228.38-33.1 228.38-31.85 227.53-31 226.68-30.15 225.43-30.15 224.18-30.15 223.33-31 222.48-31.85 222.48-33.1 222.48-34.35 223.33-35.2 224.18-36.05 225.45-36.08 226.73-36.1 227.53-35.2L227.53-35.2ZM237.93 0L237.93 0Q237.03 0 236.38-0.55 235.73-1.1 235.63-2.15L235.63-2.15Q234.83-8.7 234.73-17.15L234.73-17.15 234.68-20.9 234.28-20.9Q233.03-20.9 232.35-21.63 231.68-22.35 231.68-23.45L231.68-23.45Q231.68-24.45 232.28-25.23 232.88-26 233.98-26L233.98-26 234.88-26Q234.88-28.95 235.75-31.68 236.63-34.4 238.33-35.35L238.33-35.35Q240.03-36.25 241.53-36.25L241.53-36.25Q243.63-36.25 244.88-35.5 246.13-34.75 246.13-33.35L246.13-33.35Q246.13-32.2 245.58-31.5 245.03-30.8 244.03-30.8L244.03-30.8Q243.73-30.8 243.45-30.85 243.18-30.9 242.93-30.95L242.93-30.95Q242.23-31.15 241.48-31.15L241.48-31.15Q240.63-31.15 240.33-29.78 240.03-28.4 239.88-26L239.88-26 242.03-26Q243.18-26 243.85-25.25 244.53-24.5 244.53-23.5L244.53-23.5Q244.53-22.5 243.85-21.75 243.18-21 242.03-21L242.03-21 239.68-21 239.73-17.2Q240.18-6.1 240.53-3.05L240.53-3.05Q240.68-1.4 239.88-0.7 239.08 0 237.93 0L237.93 0ZM260.42 0.25L260.42 0.25Q256.72 0 253.97-1.25 251.22-2.5 249.77-4.4 248.32-6.3 247.67-7.9 247.02-9.5 246.87-11.08 246.72-12.65 247.02-15.15L247.02-15.15Q247.37-17.25 248.5-19.3 249.62-21.35 251.5-22.98 253.37-24.6 256.02-25.48 258.67-26.35 261.67-26L261.67-26Q264.57-25.65 266.62-24.43 268.67-23.2 270.12-21.3L270.12-21.3Q271.37-19.7 271.65-18.9 271.92-18.1 272.15-17.4 272.37-16.7 272.52-16.2 272.67-15.7 272.8-15.18 272.92-14.65 272.97-13.95L272.97-13.95Q273.02-13 272.62-12.2 272.22-11.4 271.42-10.95L271.42-10.95Q270.77-10.7 270.02-10.7L270.02-10.7 261.47-10.55Q252.47-10.5 252.47-10.35L252.47-10.35 252.32-10.35Q252.97-7.8 255.05-6.35 257.12-4.9 260.72-4.65L260.72-4.65Q262.67-4.55 263.97-4.85L263.97-4.85Q265.42-5.25 266.07-5.58 266.72-5.9 267.67-6.45L267.67-6.45Q268.62-6.8 269.57-6.35 270.52-5.9 270.87-4.95 271.22-4 270.8-3.1 270.37-2.2 269.47-1.7L269.47-1.7Q268.67-1.25 267.82-0.93 266.97-0.6 265.32-0.15 263.67 0.3 260.42 0.25L260.42 0.25ZM252.42-15.25L252.42-15.25Q255.32-15.4 267.47-15.55L267.47-15.55Q267.02-17.05 266.02-18.4L266.02-18.4Q264.02-20.7 261.07-21.05L261.07-21.05Q257.97-21.45 255.62-19.73 253.27-18 252.42-15.25L252.42-15.25ZM302.97 0.1L302.97 0.1Q300.12 0.15 297.39-0.9 294.67-1.95 292.92-3.95L292.92-3.95Q291.12-6.05 290.54-8.97 289.97-11.9 290.49-14.55 291.02-17.2 292.27-19.65L292.27-19.65Q293.27-21.5 294.67-22.98 296.07-24.45 297.94-25.48 299.82-26.5 301.94-26.58 304.07-26.65 306.52-25.65L306.52-25.65Q307.82-25.05 309.17-23.75L309.17-23.75 310.77-22.15Q311.57-21.5 311.67-20.45 311.77-19.4 311.09-18.63 310.42-17.85 309.37-17.75 308.32-17.65 307.57-18.35L307.57-18.35Q307.12-18.7 306.52-19.3L306.52-19.3 305.67-20.15Q304.97-20.85 304.52-21.05L304.52-21.05Q302.27-22.05 300.22-21.03 298.17-20 296.72-17.3L296.72-17.3Q295.22-14.5 295.24-11.7 295.27-8.9 296.72-7.25L296.72-7.25Q297.62-6.2 299.32-5.55 301.02-4.9 302.92-4.9L302.92-4.9Q306.77-5 307.87-7.65L307.87-7.65 307.82-7.9 307.82-9.35Q307.87-10.4 308.64-11.08 309.42-11.75 310.47-11.7 311.52-11.65 312.19-10.88 312.87-10.1 312.82-9.05L312.82-9.05 312.82-7.95Q312.87-6.7 312.47-5.75L312.47-5.75Q311.32-2.85 308.69-1.4 306.07 0.05 302.97 0.1L302.97 0.1ZM331.72-0.8L331.72-0.8Q329.92-0.1 327.64 0 325.37 0.1 323.42-0.53 321.47-1.15 319.97-2.45L319.97-2.45Q317.37-4.6 316.62-7.8 315.87-11 316.57-13.55 317.27-16.1 318.69-18.53 320.12-20.95 321.79-22.63 323.47-24.3 325.67-25.45 327.87-26.6 330.27-26.58 332.67-26.55 335.32-25.25L335.32-25.25Q335.72-25.05 336.19-24.65 336.67-24.25 337.02-23.95L337.02-23.95 337.67-23.3Q337.97-23 337.97-22.95L337.97-22.95Q338.77-22.25 338.82-21.15L338.82-21.15Q339.47-18.15 339.67-14.85 339.87-11.55 339.79-8.65 339.72-5.75 339.87-2.5L339.87-2.5Q339.92-1.5 339.22-0.75 338.52 0 337.47 0.05 336.42 0.1 335.67-0.6 334.92-1.3 334.87-2.3L334.87-2.3 334.87-3.05Q333.37-1.5 331.72-0.8L331.72-0.8ZM329.47-5.3L329.47-5.3Q330.22-5.5 330.67-5.7 331.12-5.9 331.79-6.3 332.47-6.7 333.22-7.3 333.97-7.9 334.57-8.8L334.57-8.8Q334.67-8.9 334.82-9L334.82-9Q334.82-15.75 333.97-19.85L333.97-19.85Q333.82-20.05 333.64-20.23 333.47-20.4 333.39-20.5 333.32-20.6 333.19-20.68 333.07-20.75 332.92-20.85L332.92-20.85Q330.52-22.15 327.87-20.93 325.22-19.7 323.22-16.35L323.22-16.35Q321.22-12.95 321.24-10.43 321.27-7.9 323.17-6.25L323.17-6.25Q324.32-5.3 326.02-5.05 327.72-4.8 329.47-5.3L329.47-5.3ZM348.76 0L348.76 0Q347.76 0 347.01-0.68 346.26-1.35 346.26-2.5L346.26-2.5Q346.26-6.45 346.21-9.3L346.21-9.3Q346.11-17.8 346.11-24.05L346.11-24.05Q346.11-25.2 346.81-25.85 347.51-26.5 348.51-26.5L348.51-26.5Q349.56-26.5 350.34-25.83 351.11-25.15 351.11-23.95L351.11-23.95 351.11-22.4Q354.21-26.45 359.26-26.45L359.26-26.45Q363.61-26.45 365.94-23.4 368.26-20.35 368.26-15.2L368.26-15.2Q368.26-9.5 368.11-7.7L368.11-7.7 367.86-4.35 367.71-2.2Q367.61-1.2 366.91-0.6 366.21 0 365.26 0L365.26 0Q364.26 0 363.51-0.68 362.76-1.35 362.76-2.5L362.76-2.5Q362.76-3.3 363.11-8.05L363.11-8.05Q363.36-11.3 363.36-13.15L363.36-13.15Q363.36-17.4 362.16-19.43 360.96-21.45 358.46-21.45L358.46-21.45Q356.66-21.45 354.74-20.35 352.81-19.25 351.11-17.55L351.11-17.55 351.21-10.45 351.26-2.5Q351.26-1.35 350.51-0.68 349.76 0 348.76 0L348.76 0ZM390.21 0L390.21 0Q389.16-0.05 388.46-0.83 387.76-1.6 387.81-2.6L387.81-2.6Q387.91-4.85 387.96-6.2L387.96-6.2Q388.01-7.95 388.06-9.98 388.11-12 388.13-13.4 388.16-14.8 388.13-16.78 388.11-18.75 388.11-19.83 388.11-20.9 388.08-23.63 388.06-26.35 388.03-27.08 388.01-27.8 387.96-30.28 387.91-32.75 387.91-33.25L387.91-33.25Q387.91-34.3 388.61-35.05 389.31-35.8 390.36-35.8 391.41-35.8 392.16-35.1 392.91-34.4 392.91-33.35L392.91-33.35Q393.06-26.65 393.06-24.95L393.06-24.95Q393.81-25.45 394.61-25.75L394.61-25.75Q398.01-27 400.76-26.43 403.51-25.85 405.71-23.8L405.71-23.8Q407.61-22 408.83-19.4 410.06-16.8 410.41-14.7L410.41-14.7Q411.26-8.35 408.21-4.05L408.21-4.05Q406.46-1.55 403.61-0.5L403.61-0.5Q400.81 0.6 397.16 0L397.16 0Q394.71-0.4 392.66-1.6L392.66-1.6Q392.36-0.85 391.68-0.4 391.01 0.05 390.21 0L390.21 0ZM397.96-4.9L397.96-4.9Q402.21-4.25 404.16-6.95L404.16-6.95Q406.06-9.65 405.46-14.05L405.46-14.05Q404.86-17.75 402.31-20.15L402.31-20.15Q399.81-22.45 396.41-21.15L396.41-21.15Q396.06-21 395.78-20.83 395.51-20.65 395.21-20.3L395.21-20.3 394.61-19.8Q394.41-19.55 393.91-18.98 393.41-18.4 393.11-18.1L393.11-18.1Q393.16-12.9 393.01-7.95L393.01-7.95 393.06-7.9Q394.76-5.45 397.96-4.9L397.96-4.9ZM428.31 0.25L428.31 0.25Q424.61 0 421.86-1.25 419.11-2.5 417.66-4.4 416.21-6.3 415.56-7.9 414.91-9.5 414.76-11.08 414.61-12.65 414.91-15.15L414.91-15.15Q415.26-17.25 416.38-19.3 417.51-21.35 419.38-22.98 421.26-24.6 423.91-25.48 426.56-26.35 429.56-26L429.56-26Q432.46-25.65 434.51-24.43 436.56-23.2 438.01-21.3L438.01-21.3Q439.26-19.7 439.53-18.9 439.81-18.1 440.03-17.4 440.26-16.7 440.41-16.2 440.56-15.7 440.68-15.18 440.81-14.65 440.86-13.95L440.86-13.95Q440.91-13 440.51-12.2 440.11-11.4 439.31-10.95L439.31-10.95Q438.66-10.7 437.91-10.7L437.91-10.7 429.36-10.55Q420.36-10.5 420.36-10.35L420.36-10.35 420.21-10.35Q420.86-7.8 422.93-6.35 425.01-4.9 428.61-4.65L428.61-4.65Q430.56-4.55 431.86-4.85L431.86-4.85Q433.31-5.25 433.96-5.58 434.61-5.9 435.56-6.45L435.56-6.45Q436.51-6.8 437.46-6.35 438.41-5.9 438.76-4.95 439.11-4 438.68-3.1 438.26-2.2 437.36-1.7L437.36-1.7Q436.56-1.25 435.71-0.93 434.86-0.6 433.21-0.15 431.56 0.3 428.31 0.25L428.31 0.25ZM420.31-15.25L420.31-15.25Q423.21-15.4 435.36-15.55L435.36-15.55Q434.91-17.05 433.91-18.4L433.91-18.4Q431.91-20.7 428.96-21.05L428.96-21.05Q425.86-21.45 423.51-19.73 421.16-18 420.31-15.25L420.31-15.25ZM464.45 0L464.45 0Q460.75-0.65 459.1-3L459.1-3Q458.3-4.05 457.95-5.8L457.95-5.8 457.75-6.9Q457.65-7.4 457.55-7.7L457.55-7.7Q457.25-8.65 457.75-9.55 458.25-10.45 459.25-10.7 460.25-10.95 461.15-10.5 462.05-10.05 462.35-9.05L462.35-9.05Q462.5-8.5 462.65-7.8L462.65-7.8Q462.7-7.55 462.73-7.33 462.75-7.1 462.9-6.55L462.9-6.55Q463.05-5.9 463.6-5.45L463.6-5.45Q464.2-4.9 465.4-4.75L465.4-4.75Q467.4-4.35 469.7-4.85L469.7-4.85Q471.95-5.35 473.2-6.3L473.2-6.3Q474.1-7.1 473.95-7.95L473.95-7.95Q473.8-9.35 472.2-10.05L472.2-10.05Q471.2-10.5 467-11.25L467-11.25Q462.65-12.1 460.85-13.45L460.85-13.45Q457.55-15.9 458.7-20.75L458.7-20.75Q459.4-23.55 461.58-24.88 463.75-26.2 466.4-26.35L466.4-26.35Q468.65-26.45 470.98-25.83 473.3-25.2 474.95-24.1L474.95-24.1Q475.5-23.7 476.1-23.15 476.7-22.6 477.28-21.95 477.85-21.3 477.95-21.25L477.95-21.25Q478.7-20.5 478.7-19.53 478.7-18.55 477.98-17.82 477.25-17.1 476.23-17.1 475.2-17.1 474.45-17.8L474.45-17.8Q473.95-18.25 473.45-18.75L473.45-18.75 472.75-19.6Q472.45-19.85 472.05-20.1L472.05-20.1Q471.1-20.7 469.6-21.13 468.1-21.55 466.65-21.5L466.65-21.5Q464-21.35 463.6-19.65L463.6-19.65Q463.15-17.85 463.9-17.3L463.9-17.3Q464.8-16.65 467.95-16L467.95-16Q472.6-15.2 474.3-14.45L474.3-14.45Q478.4-12.6 478.95-8.5L478.95-8.5Q479.4-5.15 476.45-2.7L476.45-2.7Q474.2-0.85 470.75-0.15L470.75-0.15Q467.45 0.6 464.45 0L464.45 0ZM497.45-0.35L497.45-0.35Q490.85 1.25 486.9-3L486.9-3Q483.75-6.25 483-11.35L483-11.35Q482.45-15.35 483.95-18.95L483.95-18.95Q485.75-23.55 489.65-25.75L489.65-25.75Q490.45-26.2 491.65-26.4L491.65-26.4Q491.7-26.4 492.35-26.45L492.35-26.45Q492.6-26.5 492.75-26.55L492.75-26.55Q493.5-26.7 494.25-26.4L494.25-26.4Q494.45-26.4 495.2-26.38 495.95-26.35 496.2-26.33 496.45-26.3 497.07-26.23 497.7-26.15 498.1-26.05L498.1-26.05 499.05-25.7Q499.65-25.5 500.2-25.2 500.75-24.9 501.4-24.5L501.4-24.5Q504.65-22.3 505.9-18.32 507.15-14.35 506.55-11.9L506.55-11.9Q506.1-9.2 504.95-6.88 503.8-4.55 501.77-2.75 499.75-0.95 497.45-0.35L497.45-0.35ZM495.9-5.55L495.9-5.55Q498.05-5.85 499.57-7.78 501.1-9.7 501.57-11.85 502.05-14 501.22-16.57 500.4-19.15 498.6-20.3L498.6-20.3Q498.05-20.7 497.7-20.88 497.35-21.05 496.87-21.18 496.4-21.3 496.12-21.3 495.85-21.3 494.95-21.35 494.05-21.4 493.35-21.45L493.35-21.45Q493.2-21.45 493-21.5L493-21.5Q492.45-21.45 492.4-21.45L492.4-21.45 492.05-21.35Q489.85-20.15 488.67-17.53 487.5-14.9 488-12.1L488-12.1Q488.55-8.7 490.45-6.95L490.45-6.95Q492.5-5.05 495.9-5.55L495.9-5.55ZM528.39 0L528.39 0Q527.39 0 526.64-0.68 525.89-1.35 525.89-2.5L525.89-2.5 525.79-12.7Q525.74-16.15 525.74-21.3L525.74-21.3 525.74-24.25Q525.74-25.4 526.44-26.05 527.14-26.7 528.14-26.7L528.14-26.7Q529.19-26.7 529.97-26.03 530.74-25.35 530.74-24.15L530.74-24.15 530.74-22.65Q531.29-23.85 532.79-24.7L532.79-24.7Q534.84-25.95 537.29-25.95L537.29-25.95Q539.14-25.95 540.14-25.35 541.14-24.75 541.14-23.2L541.14-23.2Q541.14-22.2 540.54-21.53 539.94-20.85 538.79-20.85L538.79-20.85Q534.59-20.85 532.99-19.7L532.99-19.7Q532.09-19.1 531.42-18.25 530.74-17.4 530.74-16.6L530.74-16.6 530.84-10.35 530.89-2.5Q530.89-1.35 530.14-0.68 529.39 0 528.39 0L528.39 0ZM556.69-0.8L556.69-0.8Q554.89-0.1 552.61 0 550.34 0.1 548.39-0.53 546.44-1.15 544.94-2.45L544.94-2.45Q542.34-4.6 541.59-7.8 540.84-11 541.54-13.55 542.24-16.1 543.66-18.53 545.09-20.95 546.76-22.63 548.44-24.3 550.64-25.45 552.84-26.6 555.24-26.58 557.64-26.55 560.29-25.25L560.29-25.25Q560.69-25.05 561.16-24.65 561.64-24.25 561.99-23.95L561.99-23.95 562.64-23.3Q562.94-23 562.94-22.95L562.94-22.95Q563.74-22.25 563.79-21.15L563.79-21.15Q564.44-18.15 564.64-14.85 564.84-11.55 564.76-8.65 564.69-5.75 564.84-2.5L564.84-2.5Q564.89-1.5 564.19-0.75 563.49 0 562.44 0.05 561.39 0.1 560.64-0.6 559.89-1.3 559.84-2.3L559.84-2.3 559.84-3.05Q558.34-1.5 556.69-0.8L556.69-0.8ZM554.44-5.3L554.44-5.3Q555.19-5.5 555.64-5.7 556.09-5.9 556.76-6.3 557.44-6.7 558.19-7.3 558.94-7.9 559.54-8.8L559.54-8.8Q559.64-8.9 559.79-9L559.79-9Q559.79-15.75 558.94-19.85L558.94-19.85Q558.79-20.05 558.61-20.23 558.44-20.4 558.36-20.5 558.29-20.6 558.16-20.68 558.04-20.75 557.89-20.85L557.89-20.85Q555.49-22.15 552.84-20.93 550.19-19.7 548.19-16.35L548.19-16.35Q546.19-12.95 546.21-10.43 546.24-7.9 548.14-6.25L548.14-6.25Q549.29-5.3 550.99-5.05 552.69-4.8 554.44-5.3L554.44-5.3ZM573.74 0L573.74 0Q572.74 0 571.99-0.68 571.24-1.35 571.24-2.5L571.24-2.5Q571.24-6.45 571.19-9.3L571.19-9.3Q571.09-17.8 571.09-24.05L571.09-24.05Q571.09-25.2 571.79-25.85 572.49-26.5 573.49-26.5L573.49-26.5Q574.54-26.5 575.31-25.83 576.09-25.15 576.09-23.95L576.09-23.95 576.09-22.4Q579.19-26.45 584.24-26.45L584.24-26.45Q588.59-26.45 590.91-23.4 593.24-20.35 593.24-15.2L593.24-15.2Q593.24-9.5 593.09-7.7L593.09-7.7 592.84-4.35 592.69-2.2Q592.59-1.2 591.89-0.6 591.19 0 590.24 0L590.24 0Q589.24 0 588.49-0.68 587.74-1.35 587.74-2.5L587.74-2.5Q587.74-3.3 588.09-8.05L588.09-8.05Q588.34-11.3 588.34-13.15L588.34-13.15Q588.34-17.4 587.14-19.43 585.94-21.45 583.44-21.45L583.44-21.45Q581.64-21.45 579.71-20.35 577.79-19.25 576.09-17.55L576.09-17.55 576.19-10.45 576.24-2.5Q576.24-1.35 575.49-0.68 574.74 0 573.74 0L573.74 0ZM618.93 0L618.93 0Q618.13 0 617.48-0.45 616.83-0.9 616.58-2.15L616.58-2.15Q614.43-0.6 612.08-0.15L612.08-0.15Q608.83 0.45 606.13-0.5 603.43-1.45 601.58-3.65L601.58-3.65Q598.23-7.55 598.28-13.55L598.28-13.55Q598.33-18.95 601.78-22.85L601.78-22.85Q605.93-27.5 612.68-26.3L612.68-26.3Q614.98-25.9 616.18-25.25L616.18-25.25 616.08-33.25Q616.08-34.3 616.81-35.05 617.53-35.8 618.56-35.8 619.58-35.8 620.33-35.08 621.08-34.35 621.08-33.35L621.08-33.35Q621.43-10.55 621.43-2.5L621.43-2.5Q621.43-1.45 620.71-0.73 619.98 0 618.93 0L618.93 0ZM611.18-5.05L611.18-5.05Q612.13-5.25 613.18-5.75 614.23-6.25 614.66-6.58 615.08-6.9 615.31-7.15 615.53-7.4 615.83-7.73 616.13-8.05 616.38-8.75L616.38-8.75Q616.38-15.1 616.28-18.85L616.28-18.85Q616.23-18.85 616.18-18.9L616.18-18.9Q614.08-20.7 614.08-20.75L614.08-20.75Q613.53-21.1 611.78-21.4L611.78-21.4Q607.78-22.1 605.53-19.5L605.53-19.5Q603.28-17.05 603.28-13.55L603.28-13.55Q603.23-9.4 605.38-6.88 607.53-4.35 611.18-5.05L611.18-5.05ZM641.53-0.35L641.53-0.35Q634.93 1.25 630.98-3L630.98-3Q627.83-6.25 627.08-11.35L627.08-11.35Q626.53-15.35 628.03-18.95L628.03-18.95Q629.83-23.55 633.73-25.75L633.73-25.75Q634.53-26.2 635.73-26.4L635.73-26.4Q635.78-26.4 636.43-26.45L636.43-26.45Q636.68-26.5 636.83-26.55L636.83-26.55Q637.58-26.7 638.33-26.4L638.33-26.4Q638.53-26.4 639.28-26.38 640.03-26.35 640.28-26.33 640.53-26.3 641.16-26.23 641.78-26.15 642.18-26.05L642.18-26.05 643.13-25.7Q643.73-25.5 644.28-25.2 644.83-24.9 645.48-24.5L645.48-24.5Q648.73-22.3 649.98-18.32 651.23-14.35 650.63-11.9L650.63-11.9Q650.18-9.2 649.03-6.88 647.88-4.55 645.86-2.75 643.83-0.95 641.53-0.35L641.53-0.35ZM639.98-5.55L639.98-5.55Q642.13-5.85 643.66-7.78 645.18-9.7 645.66-11.85 646.13-14 645.31-16.57 644.48-19.15 642.68-20.3L642.68-20.3Q642.13-20.7 641.78-20.88 641.43-21.05 640.96-21.18 640.48-21.3 640.21-21.3 639.93-21.3 639.03-21.35 638.13-21.4 637.43-21.45L637.43-21.45Q637.28-21.45 637.08-21.5L637.08-21.5Q636.53-21.45 636.48-21.45L636.48-21.45 636.13-21.35Q633.93-20.15 632.76-17.53 631.58-14.9 632.08-12.1L632.08-12.1Q632.63-8.7 634.53-6.95L634.53-6.95Q636.58-5.05 639.98-5.55L639.98-5.55ZM686.68-2.2L686.68-2.2Q686.63-3.1 686.55-3.88 686.48-4.65 686.45-5.03 686.43-5.4 686.4-5.68 686.38-5.95 686.38-6.3L686.38-6.3 686.38-9.15Q686.38-9.95 686.45-11.98 686.53-14 686.5-15.4 686.48-16.8 686.23-18.05L686.23-18.05Q685.93-19.8 685.18-20.58 684.43-21.35 682.88-21.35L682.88-21.35Q679.43-21.3 675.98-17.15L675.98-17.15Q676.13-15.65 676.13-11.35L676.13-11.35Q676.13-8.2 676.28-2.55L676.28-2.55Q676.33-1.55 675.6-0.8 674.88-0.05 673.85 0 672.83 0.05 672.08-0.68 671.33-1.4 671.28-2.45L671.28-2.45Q671.13-8.1 671.13-11.35L671.13-11.35 671.13-13.85Q671.13-14.1 671.1-14.9 671.08-15.7 671.05-16.07 671.03-16.45 670.95-17.07 670.88-17.7 670.8-18.18 670.73-18.65 670.58-19.1L670.58-19.1Q670.18-20.5 669.48-21.05L669.48-21.05Q668.73-21.65 667.23-21.5L667.23-21.5Q665.58-21.35 664.38-20.6L664.38-20.6Q663.23-19.85 662.03-18.2L662.03-18.2Q661.78-17.9 661.48-17.65L661.48-17.65Q661.68-7.65 661.48-2.4L661.48-2.4Q661.43-1.35 660.68-0.65 659.93 0.05 658.88 0 657.83-0.05 657.13-0.8 656.43-1.55 656.48-2.6L656.48-2.6Q656.58-8.15 656.58-9.73 656.58-11.3 656.45-16.98 656.33-22.65 656.33-24.25L656.33-24.25Q656.33-25 657.05-25.75 657.78-26.5 658.78-26.5 659.78-26.5 660.58-25.88 661.38-25.25 661.33-23.55L661.33-23.55Q663.58-26.2 666.83-26.5L666.83-26.5Q670.28-26.8 672.58-24.95L672.58-24.95Q673.78-24 674.73-22.3L674.73-22.3Q677.83-26.2 682.88-26.5L682.88-26.5Q686.58-26.55 688.83-24.2L688.83-24.2Q690.58-22.15 691.18-18.95L691.18-18.95Q691.43-17.45 691.48-15.68 691.53-13.9 691.45-11.68 691.38-9.45 691.38-9.15L691.38-9.15 691.38-6.4Q691.38-6.15 691.4-5.9 691.43-5.65 691.45-5.33 691.48-5 691.53-4.25 691.58-3.5 691.68-2.6L691.68-2.6Q691.73-1.55 691.05-0.78 690.38 0 689.35 0.08 688.33 0.15 687.55-0.53 686.78-1.2 686.68-2.2L686.68-2.2Z" opacity="1" transform="matrix(1,0,0,1,0,0)" fill="#000000" class="slogan-text-1" data-fill-palette-color="secondary" id="text-1"></path></svg></g></svg></g></svg></g></svg></g></svg></g></svg></g></svg></g><g><path d="M245.816 0c68.262 0 123.6 55.338 123.6 123.6 0 68.262-55.338 123.6-123.6 123.6-55.065 0-101.719-36.008-117.701-85.763h2.019c15.911 48.677 61.69 83.842 115.682 83.842 67.202 0 121.679-54.478 121.679-121.679 0-67.202-54.478-121.679-121.679-121.679-53.992 0-99.77 35.165-115.682 83.842h-2.019c15.982-49.754 62.636-85.763 117.701-85.763z" fill="#000000" stroke="transparent" data-fill-palette-color="tertiary"></path></g></svg></g><defs></defs></svg><rect width="395.52" height="247.2" fill="none" stroke="none" visibility="hidden"></rect></g></svg></g></svg>